<svg xmlns="http://www.w3.org/2000/svg" xmlns:xlink="http://www.w3.org/1999/xlink" version="1.1" width="1000" height="1000" viewBox="0 0 1000 1000" xml:space="preserve">
<desc>Created with Fabric.js 3.5.0</desc>
<defs>
</defs>
<rect x="0" y="0" width="100%" height="100%" fill="rgba(255,255,255,0)"/>
<g transform="matrix(0.9091 0 0 0.9091 500.0045 500.0045)" id="628373">
<g style="" vector-effect="non-scaling-stroke">
		<g transform="matrix(1 0 0 1 -450 -450)">
<rect style="stroke: none; stroke-width: 1; stroke-dasharray: none; stroke-linecap: butt; stroke-dashoffset: 0; stroke-linejoin: miter; stroke-miterlimit: 4; is-custom-font: none; font-file-url: none; fill: rgb(255,255,255); fill-rule: nonzero; opacity: 1;" x="-50" y="-50" rx="0" ry="0" width="100" height="100"/>
</g>
		<g transform="matrix(1.7756 0 0 1.7756 0.0081 0.0081)" id="375404">
<path style="stroke: none; stroke-width: 1; stroke-dasharray: none; stroke-linecap: butt; stroke-dashoffset: 0; stroke-linejoin: miter; stroke-miterlimit: 4; is-custom-font: none; font-file-url: none; fill: rgb(153,89,217); fill-rule: nonzero; opacity: 1;" vector-effect="non-scaling-stroke" transform=" translate(-256, -256.05)" d="M 400 192 H 32 C 14.25 192 0 206.3 0 224 v 192 c 0 53 43 96 96 96 h 192 c 53 0 96 -43 96 -96 h 16 c 61.75 0 112 -50.25 112 -112 S 461.8 192 400 192 z M 400 352 H 384 V 256 h 16 C 426.5 256 448 277.5 448 304 S 426.5 352 400 352 z M 107.9 100.7 C 120.3 107.1 128 121.4 128 136 c 0 13.25 10.75 23.89 24 23.89 S 176 148.1 176 135.7 c 0 -31.34 -16.83 -60.64 -43.91 -76.45 C 119.7 52.03 112 38.63 112 24.28 c 0 -13.25 -10.75 -24.14 -24 -24.14 S 64 11.03 64 24.28 C 64 55.63 80.83 84.92 107.9 100.7 z M 219.9 100.7 C 232.3 107.1 240 121.4 240 136 c 0 13.25 10.75 23.86 24 23.86 S 288 148.1 288 135.7 c 0 -31.34 -16.83 -60.64 -43.91 -76.45 C 231.7 52.03 224 38.63 224 24.28 c 0 -13.25 -10.75 -24.18 -24 -24.18 S 176 11.03 176 24.28 C 176 55.63 192.8 84.92 219.9 100.7 z" stroke-linecap="round"/>
</g>
</g>
</g>
</svg>